<svg xmlns="http://www.w3.org/2000/svg" width="48.657" height="46.78" viewBox="0 0 48.657 46.78">
  <defs>
    <style>
      .cls-1 {
        fill-rule: evenodd;
        opacity: 0.1;
      }
    </style>
  </defs>
  <path id="_ionicons_svg_ios-heart-empty" class="cls-1" d="M356.714,1671.21H356.6a13.321,13.321,0,0,0-11.112,6.08,13.322,13.322,0,0,0-11.112-6.08h-0.118a13.229,13.229,0,0,0-13.1,13.22c0,4.33,1.9,10.47,5.591,15.52,7.042,9.63,18.739,18.05,18.739,18.05s11.7-8.42,18.739-18.05c3.7-5.05,5.591-11.19,5.591-15.52A13.229,13.229,0,0,0,356.714,1671.21Zm4.866,26.81c-4.983,6.82-12.574,13.11-16.095,15.86-3.521-2.75-11.112-9.05-16.1-15.87-3.428-4.68-4.96-10.19-4.96-13.58a9.915,9.915,0,0,1,9.849-9.93h0.105a9.81,9.81,0,0,1,4.808,1.26,10.177,10.177,0,0,1,3.556,3.34,3.292,3.292,0,0,0,5.5,0,10.281,10.281,0,0,1,3.556-3.34,9.81,9.81,0,0,1,4.808-1.26h0.105a9.915,9.915,0,0,1,9.849,9.93A25.552,25.552,0,0,1,361.58,1698.02Z" transform="translate(-321.156 -1671.22)"/>
</svg>
