<svg xmlns="http://www.w3.org/2000/svg" width="25" height="25" viewBox="0 0 25 25">
  <defs>
    <style>
      .cls-1 {
        fill: #fff;
        fill-rule: evenodd;
      }
    </style>
  </defs>
  <path id="_ionicons_svg_md-locate" class="cls-1" d="M73.155,41.309a10.755,10.755,0,0,0-9.465-9.464V30H61.31v1.845a10.755,10.755,0,0,0-9.465,9.464H50V43.69h1.845a10.756,10.756,0,0,0,9.465,9.464V55H63.69V53.155a10.755,10.755,0,0,0,9.464-9.464H75V41.309H73.155ZM62.5,50.833A8.333,8.333,0,1,1,70.833,42.5,8.358,8.358,0,0,1,62.5,50.833Zm0-12.8A4.464,4.464,0,1,0,66.964,42.5,4.477,4.477,0,0,0,62.5,38.036Z" transform="translate(-50 -30)"/>
</svg>
