<svg id="_ionicons_svg_ios-mail" xmlns="http://www.w3.org/2000/svg" width="15.188" height="10.531" viewBox="0 0 15.188 10.531">
  <defs>
    <style>
      .cls-1 {
        fill: #fff;
        fill-rule: evenodd;
      }
    </style>
  </defs>
  <path id="Path_1" data-name="Path 1" class="cls-1" d="M110.07,493.289l-3.93,4a0.072,0.072,0,0,0,0,.1l2.751,2.929a0.475,0.475,0,0,1-.672.672l-2.74-2.918a0.075,0.075,0,0,0-.106,0l-0.668.679a2.939,2.939,0,0,1-2.1.884,3,3,0,0,1-2.14-.909l-0.643-.654a0.076,0.076,0,0,0-.106,0L96.98,501a0.475,0.475,0,0,1-.672-0.672l2.751-2.929a0.079,0.079,0,0,0,0-.1l-3.934-4a0.072,0.072,0,0,0-.124.051v8.011a1.172,1.172,0,0,0,1.169,1.168h12.857a1.172,1.172,0,0,0,1.169-1.168V493.34A0.074,0.074,0,0,0,110.07,493.289Z" transform="translate(-95 -492)"/>
  <path id="Path_2" data-name="Path 2" class="cls-1" d="M102.6,498.688a1.986,1.986,0,0,0,1.428-.6l5.731-5.833a1.146,1.146,0,0,0-.723-0.256H96.165a1.14,1.14,0,0,0-.724.256l5.731,5.833A1.988,1.988,0,0,0,102.6,498.688Z" transform="translate(-95 -492)"/>
</svg>
