<svg xmlns="http://www.w3.org/2000/svg" width="15.031" height="15.031" viewBox="0 0 15.031 15.031">
  <defs>
    <style>
      .cls-1 {
        fill: #fff;
        fill-rule: evenodd;
      }
    </style>
  </defs>
  <path id="_ionicons_svg_ios-call" class="cls-1" d="M109.567,439.745a12.607,12.607,0,0,0-2.632-1.761,1.275,1.275,0,0,0-1.636.031,1.553,1.553,0,0,1-1.3.531A11,11,0,0,1,99.453,434a1.574,1.574,0,0,1,.531-1.3,1.27,1.27,0,0,0,.031-1.636,12.354,12.354,0,0,0-1.761-2.632c-0.574-.574-0.7-0.449-1.019-0.336a5.846,5.846,0,0,0-.933.5,2.818,2.818,0,0,0-1.121,1.183c-0.223.481-.48,1.375,0.832,3.71a20.691,20.691,0,0,0,3.639,4.854l0,0,0,0a20.755,20.755,0,0,0,4.854,3.64c2.335,1.312,3.229,1.054,3.709.832a2.762,2.762,0,0,0,1.183-1.121,5.759,5.759,0,0,0,.5-0.934C110.016,440.448,110.145,440.319,109.567,439.745Z" transform="translate(-95 -427.969)"/>
</svg>
