<svg xmlns="http://www.w3.org/2000/svg" width="15.281" height="15.29" viewBox="0 0 15.281 15.29">
  <defs>
    <style>
      .cls-1 {
        fill-rule: evenodd;
      }
    </style>
  </defs>
  <path id="_ionicons_svg_ios-call" class="cls-1" d="M66.819,2822.81a12.639,12.639,0,0,0-2.677-1.8,1.3,1.3,0,0,0-1.664.04,1.583,1.583,0,0,1-1.323.54,7.938,7.938,0,0,1-2.658-1.97,7.776,7.776,0,0,1-1.966-2.66,1.59,1.59,0,0,1,.54-1.32,1.287,1.287,0,0,0,.032-1.66,12.36,12.36,0,0,0-1.792-2.68c-0.584-.59-0.715-0.46-1.037-0.34a6.026,6.026,0,0,0-.949.5,2.913,2.913,0,0,0-1.14,1.2c-0.226.49-.489,1.4,0.846,3.78a21.143,21.143,0,0,0,3.7,4.94h0.008a21.244,21.244,0,0,0,4.938,3.71c2.376,1.33,3.285,1.07,3.774.84a2.765,2.765,0,0,0,1.2-1.14,5.767,5.767,0,0,0,.5-0.95C67.276,2823.52,67.407,2823.39,66.819,2822.81Z" transform="translate(-52 -2810.84)"/>
</svg>
