<svg id="tick" xmlns="http://www.w3.org/2000/svg" width="68" height="68" viewBox="0 0 68 68">
  <defs>
    <style>
      .cls-1 {
        fill: #4dcfe0;
      }

      .cls-1, .cls-2 {
        fill-rule: evenodd;
      }

      .cls-2 {
        fill: #1185e0;
      }
    </style>
  </defs>
  <path id="Path_5" data-name="Path 5" class="cls-1" d="M2026.61,898.216h0a2.453,2.453,0,0,1-1.88-.854l-12.9-14.01a2.54,2.54,0,1,1,3.76-3.417l11.1,12.045,30.76-30.668a2.537,2.537,0,0,1,3.59,3.587l-32.64,32.548A2.326,2.326,0,0,1,2026.61,898.216Z" transform="translate(-1995 -852)"/>
  <path id="Path_6" data-name="Path 6" class="cls-2" d="M2029,920a34,34,0,0,1,0-68,2.563,2.563,0,0,1,0,5.125A28.875,28.875,0,1,0,2057.87,886a2.565,2.565,0,0,1,5.13,0A34.088,34.088,0,0,1,2029,920Z" transform="translate(-1995 -852)"/>
</svg>
