<svg xmlns="http://www.w3.org/2000/svg" width="15" height="15" viewBox="0 0 15 15">
  <defs>
    <style>
      .cls-1 {
        fill: #fff;
        fill-rule: evenodd;
      }
    </style>
  </defs>
  <path id="_ionicons_svg_ios-person" class="cls-1" d="M111.992,381.711c-0.281-1.242-1.886-1.848-2.441-2.043a18.221,18.221,0,0,0-2.035-.391,2.067,2.067,0,0,1-.942-0.433,8.241,8.241,0,0,1-.062-1.926,5.759,5.759,0,0,0,.445-0.848,10.948,10.948,0,0,0,.328-1.48,0.551,0.551,0,0,0,.434-0.563,5.554,5.554,0,0,0,.289-1.308c-0.024-.45-0.27-0.438-0.27-0.438a6.864,6.864,0,0,0,.266-2,3.518,3.518,0,0,0-7,0,7.151,7.151,0,0,0,.261,2s-0.246-.012-0.269.438a5.5,5.5,0,0,0,.289,1.308,0.546,0.546,0,0,0,.433.563,10.836,10.836,0,0,0,.329,1.48,5.759,5.759,0,0,0,.445.848,8.241,8.241,0,0,1-.062,1.926,2.077,2.077,0,0,1-.942.433,18.184,18.184,0,0,0-2.035.391c-0.555.195-2.16,0.8-2.441,2.043a0.312,0.312,0,0,0,.308.379h14.372A0.311,0.311,0,0,0,111.992,381.711Z" transform="translate(-97 -367.094)"/>
</svg>
