<svg xmlns="http://www.w3.org/2000/svg" width="15" height="15" viewBox="0 0 15 15">
  <defs>
    <style>
      .cls-1 {
        fill-rule: evenodd;
      }
    </style>
  </defs>
  <path id="_ionicons_svg_ios-person" class="cls-1" d="M2797.99,885.711c-0.28-1.242-1.88-1.848-2.44-2.043a18.5,18.5,0,0,0-2.03-.391,2.125,2.125,0,0,1-.95-0.433,8.57,8.57,0,0,1-.06-1.926,5.983,5.983,0,0,0,.45-0.848,12.109,12.109,0,0,0,.33-1.48,0.546,0.546,0,0,0,.43-0.563,5.773,5.773,0,0,0,.29-1.308c-0.03-.45-0.27-0.438-0.27-0.438a6.685,6.685,0,0,0,.26-2,3.515,3.515,0,0,0-7,0,7.134,7.134,0,0,0,.26,2s-0.24-.012-0.27.438a5.773,5.773,0,0,0,.29,1.308,0.546,0.546,0,0,0,.43.563,12.109,12.109,0,0,0,.33,1.48,5.983,5.983,0,0,0,.45.848,8.57,8.57,0,0,1-.06,1.926,2.125,2.125,0,0,1-.95.433,18.5,18.5,0,0,0-2.03.391c-0.56.2-2.16,0.8-2.44,2.043a0.307,0.307,0,0,0,.31.379h14.37A0.305,0.305,0,0,0,2797.99,885.711Z" transform="translate(-2783 -871.094)"/>
</svg>
